<?xml version="1.0" standalone="no"?>
<!DOCTYPE svg PUBLIC "-//W3C//DTD SVG 20010904//EN"
 "http://www.w3.org/TR/2001/REC-SVG-20010904/DTD/svg10.dtd">
<svg version="1.0" xmlns="http://www.w3.org/2000/svg"
 width="3732.000000pt" height="1007.000000pt" viewBox="0 0 3732.000000 1007.000000"
 preserveAspectRatio="xMidYMid meet">

<g transform="translate(0.000000,1007.000000) scale(0.100000,-0.100000)"
fill="#000000" stroke="none">
<path d="M19276 8774 c-3 -9 -6 -23 -6 -32 1 -12 5 -10 15 8 8 14 14 28 15 33
0 13 -18 7 -24 -9z"/>
<path d="M18206 8704 c-4 -9 -4 -19 -1 -22 2 -3 7 3 11 12 4 9 4 19 1 22 -2 3
-7 -3 -11 -12z"/>
<path d="M14260 8673 c-35 -7 -42 -17 -21 -30 16 -10 23 -8 42 13 12 13 18 23
13 23 -5 -1 -20 -4 -34 -6z"/>
<path d="M19607 8592 c-5 -7 -12 -34 -15 -60 -7 -42 -10 -47 -36 -49 -16 -1
-35 5 -43 13 -16 16 -32 18 -52 5 -16 -10 -6 -31 14 -31 9 0 14 -8 12 -22 -1
-16 7 -26 28 -37 29 -15 29 -16 6 -19 -16 -3 -33 6 -55 27 -31 30 -101 61
-138 61 -17 0 -18 -3 -8 -15 9 -11 10 -15 0 -15 -6 0 -10 -8 -8 -17 2 -13 11
-17 31 -15 18 2 29 -2 33 -13 4 -9 13 -14 21 -11 8 3 11 1 8 -4 -9 -15 37 -29
57 -19 24 13 72 -7 64 -27 -3 -9 -6 -17 -6 -19 0 -10 -39 9 -44 21 -3 8 -10
14 -16 14 -6 0 -9 -4 -5 -9 3 -6 -7 -6 -27 0 -18 5 -48 9 -65 9 -26 0 -33 -4
-33 -19 0 -11 3 -22 8 -24 10 -7 218 -22 272 -20 31 1 39 -1 25 -6 -16 -7 -13
-9 20 -15 22 -3 47 -7 56 -8 9 -1 16 -8 16 -15 0 -16 -12 -16 -37 -1 -10 7
-23 9 -27 4 -4 -4 0 -12 10 -17 10 -6 32 -25 50 -42 18 -18 65 -52 105 -77 39
-25 72 -51 72 -57 0 -7 7 -13 15 -13 8 0 23 -12 32 -27 28 -44 46 -63 60 -63
13 0 54 -33 109 -88 35 -35 50 -29 34 12 -5 14 -6 26 -2 26 15 0 53 -41 47
-50 -4 -6 2 -7 11 -3 13 5 16 3 11 -10 -3 -9 -3 -16 1 -15 4 2 18 -5 32 -13
14 -9 45 -28 70 -43 44 -25 41 -37 -3 -15 -12 6 12 -20 53 -59 41 -39 80 -71
87 -72 16 0 103 -46 123 -65 19 -17 30 -19 30 -7 0 5 -12 14 -26 21 -20 9 -23
15 -15 25 14 17 -14 48 -68 72 -38 18 -60 43 -26 30 8 -3 15 -2 15 2 -2 34
-150 130 -150 97 0 -9 12 -20 26 -26 15 -5 24 -12 22 -15 -9 -8 -79 29 -75 40
2 5 -10 22 -26 38 -34 32 -31 34 20 13 20 -9 44 -13 54 -10 9 3 20 1 24 -5 5
-8 11 -8 21 1 21 17 1 36 -45 44 -21 3 -47 14 -57 23 -11 10 -34 25 -52 33
-18 9 -32 18 -30 21 4 7 -50 50 -83 67 -14 7 -34 29 -43 48 -16 34 -16 35 4
40 26 7 26 19 -1 33 -11 6 -28 25 -38 41 -18 29 -19 29 -24 8 -3 -12 -3 -35 0
-50 4 -24 2 -29 -13 -28 -20 0 -74 59 -55 59 7 0 9 10 6 23 -3 12 -7 33 -9 47
-9 52 -63 120 -95 120 -20 0 -12 -37 9 -43 26 -7 26 -27 -1 -27 -11 0 -17 5
-14 10 3 6 -5 10 -19 10 -14 0 -28 5 -31 10 -3 6 -11 10 -17 10 -6 0 2 -11 18
-25 21 -19 24 -24 9 -19 -28 10 -66 45 -76 72 -5 12 -19 27 -31 32 l-23 9 22
0 c13 1 31 -12 46 -31 23 -29 26 -30 41 -15 17 17 21 37 7 37 -4 0 -31 18 -59
40 -27 22 -59 40 -70 40 -12 0 -24 5 -27 11 -4 6 -13 8 -21 5 -10 -4 -14 9
-16 52 -2 35 -6 52 -11 44z m-214 -159 c-7 -2 -19 -2 -25 0 -7 3 -2 5 12 5 14
0 19 -2 13 -5z m524 -199 c-3 -4 1 -13 9 -21 8 -9 12 -18 9 -21 -5 -6 -34 27
-35 41 0 4 5 7 12 7 6 0 9 -3 5 -6z m138 -175 c7 -20 0 -37 -10 -27 -3 3 -7
15 -10 27 -5 27 12 28 20 0z m110 -70 c12 -19 -5 -23 -22 -6 -16 16 -16 17 -1
17 9 0 20 -5 23 -11z m76 -96 c13 -16 12 -17 -3 -4 -17 13 -22 21 -14 21 2 0
10 -8 17 -17z m165 -171 c-4 -3 -14 2 -24 12 -16 18 -16 18 6 6 13 -6 21 -14
18 -18z"/>
<path d="M19365 8567 c-4 -10 -5 -21 -1 -24 10 -10 18 4 13 24 -4 17 -4 17
-12 0z"/>
<path d="M19538 8523 c6 -2 18 -2 25 0 6 3 1 5 -13 5 -14 0 -19 -2 -12 -5z"/>
<path d="M19387 8514 c-11 -12 3 -24 29 -24 16 0 24 5 22 13 -5 13 -40 22 -51
11z"/>
<path d="M19255 8460 c3 -5 8 -10 11 -10 2 0 4 5 4 10 0 6 -5 10 -11 10 -5 0
-7 -4 -4 -10z"/>
<path d="M20040 8260 c0 -5 5 -10 10 -10 6 0 10 5 10 10 0 6 -4 10 -10 10 -5
0 -10 -4 -10 -10z"/>
<path d="M3361 8104 c0 -11 3 -14 6 -6 3 7 2 16 -1 19 -3 4 -6 -2 -5 -13z"/>
<path d="M3471 8113 c-2 -23 11 -42 25 -36 18 7 18 23 0 23 -8 0 -17 6 -19 13
-4 8 -6 8 -6 0z"/>
<path d="M14190 8084 c-12 -32 -13 -61 -1 -48 10 10 23 74 16 74 -3 0 -10 -12
-15 -26z"/>
<path d="M3496 8055 c-3 -8 -1 -15 4 -15 5 0 10 -8 12 -17 3 -16 5 -15 9 2 7
25 -16 52 -25 30z"/>
<path d="M3430 8030 c0 -5 5 -10 10 -10 6 0 10 5 10 10 0 6 -4 10 -10 10 -5 0
-10 -4 -10 -10z"/>
<path d="M3460 8031 c0 -10 19 -25 25 -20 1 2 -3 10 -11 17 -8 7 -14 8 -14 3z"/>
<path d="M1940 7979 c0 -5 -5 -7 -11 -3 -7 4 -10 2 -8 -5 6 -18 193 -101 217
-96 27 5 62 28 62 40 0 7 -22 11 -52 11 -40 -1 -69 7 -118 32 -68 34 -90 39
-90 21z"/>
<path d="M3667 7970 c-3 -11 -2 -22 2 -24 4 -3 8 6 9 20 2 29 -4 31 -11 4z"/>
<path d="M2347 7914 c-10 -11 3 -24 22 -24 10 0 24 7 31 15 11 13 8 15 -17 15
-16 0 -33 -3 -36 -6z"/>
<path d="M2254 7875 c-18 -14 -18 -14 4 -8 12 3 22 9 22 14 0 12 -3 11 -26 -6z"/>
<path d="M2297 7873 c-11 -11 -8 -20 7 -20 8 0 12 6 9 14 -6 15 -7 15 -16 6z"/>
<path d="M20160 7825 c0 -8 7 -15 15 -15 8 0 15 -4 15 -9 0 -5 8 -12 17 -16
11 -4 7 5 -11 24 -34 36 -36 36 -36 16z"/>
<path d="M20272 7669 c12 -16 24 -26 26 -21 9 29 82 -31 82 -68 0 -9 11 -27
24 -39 22 -21 24 -21 28 -4 9 43 -113 163 -166 163 -14 0 -14 -4 6 -31z"/>
<path d="M20493 7574 c-7 -3 -9 -13 -6 -21 5 -12 2 -15 -10 -10 -20 7 -34 -28
-18 -47 6 -7 8 -16 4 -19 -3 -4 2 -7 11 -7 12 0 16 5 12 15 -6 17 9 21 19 5 3
-5 16 -15 28 -21 22 -10 22 -10 -1 10 -13 11 -23 24 -23 28 -1 4 -5 7 -10 6
-13 -4 -11 13 4 25 7 6 28 9 47 6 l35 -4 -35 19 c-38 22 -39 22 -57 15z"/>
<path d="M20602 7542 c-8 -6 4 -16 38 -32 39 -18 53 -21 59 -11 4 6 12 11 17
10 26 -5 64 2 64 12 0 6 -7 8 -16 5 -9 -3 -21 -3 -27 1 -7 5 -30 8 -52 8 -22
1 -47 4 -55 8 -8 4 -21 3 -28 -1z"/>
<path d="M20732 7458 c5 -13 58 -31 58 -19 0 7 -44 31 -56 31 -3 0 -4 -5 -2
-12z"/>
<path d="M31244 7463 c3 -6 0 -13 -6 -16 -7 -2 -10 -8 -5 -12 4 -5 13 -3 19 3
9 9 9 15 -1 25 -9 8 -12 8 -7 0z"/>
<path d="M20530 7425 c7 -8 18 -15 25 -15 7 0 15 7 19 15 4 11 -2 15 -26 15
-26 0 -29 -2 -18 -15z"/>
<path d="M20835 7413 c17 -8 38 -23 48 -32 17 -15 20 -14 33 4 14 18 12 21
-18 32 -18 6 -46 12 -63 12 l-30 0 30 -16z"/>
<path d="M31248 7423 c-22 -5 -32 -37 -20 -60 5 -10 9 -67 10 -127 0 -60 5
-112 10 -115 5 -3 8 -14 6 -23 -1 -10 2 -18 8 -18 6 0 7 -11 4 -26 -4 -16 -2
-32 6 -42 10 -12 10 -14 1 -8 -7 4 -13 2 -13 -3 0 -6 5 -11 10 -11 6 0 10 -5
10 -11 0 -5 -5 -7 -12 -3 -7 4 -8 3 -4 -5 10 -16 26 -4 26 21 0 42 11 9 16
-48 5 -58 32 -122 48 -116 5 2 12 -2 17 -9 4 -8 11 -10 15 -6 4 4 -1 17 -12
29 -10 12 -13 18 -5 13 10 -6 12 -4 6 6 -13 21 -16 69 -4 69 34 0 48 54 34
130 -5 25 -7 53 -6 63 1 10 -5 29 -13 42 -9 13 -16 31 -16 40 0 8 -4 15 -9 15
-5 0 -12 12 -16 28 -3 15 -15 34 -26 42 -14 11 -20 28 -21 58 0 43 -6 50 -25
31 -9 -9 -10 -4 -7 20 3 17 4 30 2 30 -2 -1 -11 -3 -20 -6z"/>
<path d="M20594 7389 c8 -12 12 -27 10 -34 -5 -12 44 -55 63 -55 4 0 17 -8 28
-16 19 -15 19 -16 -12 -12 -18 3 -33 1 -33 -3 0 -12 48 -39 69 -39 25 0 36
-17 33 -52 -2 -25 1 -28 29 -28 26 0 31 -3 26 -20 -6 -22 25 -45 48 -36 7 2
16 -2 19 -10 3 -8 21 -22 41 -31 19 -9 35 -21 35 -26 0 -10 -39 1 -60 17 -8 7
-28 18 -45 24 l-30 13 25 -21 c36 -28 79 -47 123 -54 36 -6 38 -5 32 16 -5 18
-4 20 4 8 9 -12 11 -9 11 13 0 35 -16 67 -34 67 -8 0 -17 7 -20 16 -3 8 -26
24 -51 35 -46 21 -56 46 -16 42 37 -4 23 14 -16 22 -21 4 -44 12 -52 18 -12
10 -13 9 -7 -1 20 -34 -65 27 -133 94 -40 41 -80 74 -88 74 -12 0 -12 -3 1
-21z m66 -59 c0 -5 -2 -10 -4 -10 -3 0 -8 5 -11 10 -3 6 -1 10 4 10 6 0 11 -4
11 -10z"/>
<path d="M20684 7385 c22 -17 40 -20 32 -6 -3 5 -16 11 -28 14 -22 6 -22 5 -4
-8z"/>
<path d="M20769 7292 c7 -12 17 -20 22 -16 6 3 9 7 7 8 -2 1 -12 8 -22 16 -18
14 -19 14 -7 -8z"/>
<path d="M20990 7281 c0 -8 160 -44 167 -37 5 5 -125 46 -147 46 -11 0 -20 -4
-20 -9z"/>
<path d="M1652 7139 c-7 -12 -11 -23 -8 -26 8 -9 36 17 36 33 0 20 -13 17 -28
-7z"/>
<path d="M21020 7046 c0 -8 -3 -21 -6 -29 -5 -14 22 -23 83 -30 5 0 35 -8 68
-18 32 -10 62 -15 65 -11 10 14 60 11 60 -4 0 -16 16 -19 24 -5 13 20 -70 50
-149 54 -25 2 -39 7 -37 15 1 8 -11 12 -32 12 -19 0 -41 7 -50 15 -18 19 -26
19 -26 1z"/>
<path d="M31347 6789 c7 -7 15 -10 18 -7 3 3 -2 9 -12 12 -14 6 -15 5 -6 -5z"/>
<path d="M31415 6770 c-7 -12 2 -30 16 -30 12 0 12 27 0 35 -5 3 -12 1 -16 -5z"/>
<path d="M31370 6749 c0 -5 5 -7 10 -4 6 3 10 8 10 11 0 2 -4 4 -10 4 -5 0
-10 -5 -10 -11z"/>
<path d="M4545 5151 c2 -12 -5 -22 -21 -30 -27 -12 -32 -42 -9 -61 17 -14 21
-35 5 -25 -5 3 -10 -1 -10 -10 0 -14 3 -14 25 2 20 14 24 24 20 46 -2 16 2 41
10 56 15 29 11 41 -11 41 -7 0 -11 -8 -9 -19z"/>
<path d="M4126 5062 c-3 -6 -1 -14 5 -17 15 -10 25 3 12 16 -7 7 -13 7 -17 1z"/>
<path d="M3974 4991 c19 -21 25 -19 -75 -24 -55 -2 -111 -43 -103 -74 3 -11
-1 -25 -10 -32 -12 -11 -21 -8 -51 14 -19 15 -35 31 -35 36 0 5 -4 9 -10 9
-16 0 -12 -27 6 -34 8 -3 13 -10 10 -14 -5 -9 -129 -7 -153 2 -22 9 -15 -12 9
-25 13 -7 43 -9 80 -5 32 3 58 4 58 2 0 -10 -90 -56 -109 -56 -11 0 -26 7 -35
15 -8 8 -19 15 -25 15 -6 0 -11 4 -11 9 0 5 -10 11 -21 14 -15 4 -20 12 -17
24 5 20 -13 43 -34 43 -9 0 -9 3 2 10 11 7 7 10 -17 10 -17 0 -33 6 -35 12 -3
9 -9 8 -21 -4 -24 -23 -22 -25 25 -33 53 -9 73 -32 51 -57 -9 -10 -22 -18 -30
-18 -8 0 -11 -5 -8 -10 6 -10 -22 -26 -31 -18 -10 11 9 37 32 42 23 6 34 26
14 26 -5 0 -10 -4 -10 -9 0 -4 -11 -6 -25 -3 -14 2 -25 11 -25 18 0 8 -3 14
-8 14 -4 0 -12 10 -17 22 -8 16 -20 22 -52 24 -41 3 -64 -8 -43 -21 6 -3 24
-7 40 -7 16 -1 27 -5 24 -9 -2 -4 1 -11 7 -15 8 -4 9 -3 5 4 -4 7 -3 12 3 12
5 0 13 -5 17 -11 8 -13 -14 -30 -36 -27 -8 0 -23 -2 -33 -7 -24 -10 -67 2 -67
21 0 8 -4 13 -9 10 -5 -4 -12 0 -14 6 -4 10 -8 9 -16 -2 -10 -13 -12 -13 -22
0 -9 13 -10 12 -5 -2 3 -10 1 -20 -4 -23 -6 -4 -10 -2 -10 3 0 17 -28 21 -34
6 -3 -9 -1 -12 4 -9 6 3 10 1 10 -5 0 -6 5 -8 10 -5 6 3 10 1 10 -6 0 -7 6 -4
14 7 14 19 15 19 38 -3 14 -13 32 -23 41 -23 9 0 18 -4 21 -9 4 -5 30 -12 59
-16 28 -4 58 -12 66 -19 8 -6 15 -10 15 -9 1 1 13 6 28 12 20 7 28 7 31 -4 3
-7 21 -13 41 -13 19 0 38 -2 43 -5 4 -3 31 -1 59 4 39 7 57 6 79 -5 15 -8 42
-13 61 -11 19 2 34 -1 34 -7 0 -5 5 -6 10 -3 6 3 10 15 10 26 0 10 5 19 10 19
6 0 10 -9 10 -21 0 -11 5 -17 10 -14 6 4 8 11 5 16 -9 13 11 11 53 -6 23 -10
38 -12 40 -6 2 7 10 6 23 -2 15 -10 28 -8 67 7 40 15 89 27 166 39 10 2 24 11
31 20 7 9 17 17 24 17 20 0 61 31 61 46 0 8 5 14 10 14 6 0 10 7 10 15 0 8 10
17 23 20 14 4 23 14 24 26 1 14 -3 19 -12 15 -8 -3 -30 1 -49 9 -32 14 -86 17
-86 6 0 -2 7 -13 17 -23 15 -17 15 -18 -11 -18 -15 0 -52 12 -82 26 -38 18
-65 24 -89 21 -19 -3 -35 -1 -35 4 0 5 -10 9 -22 9 -20 0 -20 -1 -4 -19z m260
-86 c-4 -8 -8 -15 -11 -15 -2 0 -11 7 -19 15 -14 13 -13 15 10 15 18 0 24 -4
20 -15z m-500 -56 c-3 -5 -10 -7 -15 -3 -5 3 -7 10 -3 15 3 5 10 7 15 3 5 -3
7 -10 3 -15z m-269 -29 c3 -5 -3 -10 -15 -10 -12 0 -18 5 -15 10 3 6 10 10 15
10 5 0 12 -4 15 -10z"/>
<path d="M3600 4933 c0 -15 44 -28 59 -18 21 12 11 23 -24 27 -24 3 -35 0 -35
-9z"/>
<path d="M27909 4881 c7 -11 8 -21 4 -22 -46 -6 -67 -4 -89 8 -23 12 -25 11
-14 -2 7 -8 10 -25 7 -38 -6 -20 -12 -22 -54 -21 -67 3 -125 14 -143 29 -8 7
-44 23 -79 35 -63 22 -65 22 -78 4 -8 -11 -17 -17 -21 -14 -4 3 -8 -6 -9 -20
-1 -14 -4 -38 -8 -55 -4 -21 -2 -33 10 -42 10 -6 14 -17 10 -23 -10 -15 -94
-7 -105 10 -5 8 -26 10 -72 5 -44 -5 -68 -3 -72 4 -11 17 -29 13 -22 -5 3 -8
2 -12 -4 -9 -6 3 -10 -1 -10 -10 0 -9 -4 -14 -9 -11 -5 3 -11 -1 -15 -9 -3 -8
-11 -15 -17 -15 -8 0 -7 5 2 17 13 15 12 15 -9 2 -12 -8 -21 -18 -19 -24 5
-14 47 -19 47 -6 0 6 12 11 26 11 14 0 34 5 44 10 31 17 148 15 168 -3 9 -8
42 -18 72 -21 77 -8 82 -10 112 -30 21 -14 37 -16 68 -11 41 7 46 25 6 25 -12
0 -27 5 -34 12 -9 9 -12 9 -12 0 0 -7 -8 -12 -17 -12 -17 1 -17 1 0 11 9 6 15
15 11 20 -3 6 11 3 31 -5 21 -9 50 -16 66 -16 28 0 143 -52 154 -70 4 -6 18
-10 33 -9 15 0 21 3 15 6 -21 8 -15 23 10 23 13 0 36 -14 52 -30 19 -20 35
-28 47 -24 11 3 17 1 16 -6 -2 -7 10 -14 27 -16 19 -2 25 0 16 5 -19 12 3 24
29 16 15 -5 18 -3 14 8 -3 8 -25 18 -49 21 -28 5 -54 17 -74 37 -17 16 -31 31
-31 34 0 3 15 5 34 5 19 0 37 4 41 10 4 6 15 6 31 0 14 -6 35 -9 47 -9 16 1
17 3 5 6 -11 3 -16 13 -15 31 2 23 -3 28 -25 30 -16 2 -28 9 -28 16 0 7 -9 21
-19 30 -11 10 -17 24 -14 32 6 17 44 19 60 3 11 -11 83 -19 83 -9 0 7 -64 50
-74 50 -5 0 -16 8 -25 19 -24 27 -57 35 -65 15 -5 -13 -2 -15 14 -11 11 3 18
1 14 -4 -3 -5 0 -9 6 -9 6 0 8 -4 5 -10 -11 -18 -61 -11 -81 11 -10 12 -18 24
-16 27 2 4 -2 8 -8 10 -9 3 -9 -1 -1 -17z m-436 -65 c4 -10 1 -13 -9 -9 -15 6
-19 23 -5 23 5 0 11 -7 14 -14z m494 -2 c-3 -3 -12 -4 -19 -1 -8 3 -5 6 6 6
11 1 17 -2 13 -5z m-307 -24 c-8 -5 -19 -10 -25 -10 -5 0 -3 5 5 10 8 5 20 10
25 10 6 0 3 -5 -5 -10z m268 2 c6 -2 12 -12 13 -21 0 -10 2 -11 6 -3 7 17 23
15 23 -3 0 -8 -8 -15 -17 -15 -15 0 -16 -2 -3 -10 8 -5 26 -6 39 -3 18 4 22 3
16 -7 -5 -8 -21 -10 -51 -6 -26 3 -44 2 -44 -4 0 -6 -5 -10 -11 -10 -6 0 -8 7
-5 16 4 9 1 23 -5 30 -9 11 -8 14 6 14 28 0 11 11 -27 17 -18 3 -35 7 -38 9
-5 6 80 2 98 -4z m-84 -62 c11 -10 20 -30 22 -44 2 -23 0 -25 -17 -16 -10 6
-19 17 -19 25 0 8 -3 15 -7 15 -5 0 -21 12 -38 25 l-30 26 35 -7 c19 -3 44
-14 54 -24z m-54 -64 c0 -8 6 -17 13 -20 6 -3 3 -5 -8 -3 -20 2 -35 37 -16 37
6 0 11 -6 11 -14z m120 -31 c8 -9 9 -15 2 -15 -6 0 -13 4 -16 8 -3 5 -19 7
-37 4 -22 -3 -30 -1 -25 7 10 16 61 14 76 -4z"/>
<path d="M3618 4883 c6 -2 18 -2 25 0 6 3 1 5 -13 5 -14 0 -19 -2 -12 -5z"/>
<path d="M3760 4873 c0 -10 4 -14 8 -8 4 6 11 13 16 18 5 4 2 7 -7 7 -10 0
-17 -8 -17 -17z"/>
<path d="M26777 4837 c4 -6 0 -8 -10 -4 -16 6 -45 -19 -34 -29 10 -10 47 7 56
25 7 13 6 18 -4 18 -8 0 -11 -5 -8 -10z"/>
<path d="M26680 4776 c0 -2 7 -6 15 -10 8 -3 15 -1 15 4 0 6 -7 10 -15 10 -8
0 -15 -2 -15 -4z"/>
<path d="M26637 4749 c-10 -6 -27 -9 -36 -6 -14 3 -17 -1 -13 -19 4 -20 0 -24
-20 -24 -14 0 -33 -9 -43 -20 -13 -14 -21 -17 -26 -9 -8 14 -72 2 -66 -14 8
-24 35 -31 63 -17 21 12 28 12 31 3 7 -20 25 -15 21 5 -4 28 11 42 47 42 28 0
32 3 28 20 -4 15 0 20 14 20 11 0 20 7 20 15 0 8 -1 15 -1 15 -1 0 -9 -5 -19
-11z"/>
<path d="M26748 4743 c7 -3 16 -2 19 1 4 3 -2 6 -13 5 -11 0 -14 -3 -6 -6z"/>
<path d="M26265 4629 c-5 -14 -16 -19 -46 -19 -28 0 -38 -4 -33 -11 5 -9 -3
-10 -30 -5 -34 7 -51 -6 -23 -18 6 -3 -6 -4 -28 -3 -22 0 -69 0 -104 -1 -51
-2 -62 -5 -57 -17 4 -11 -3 -14 -32 -14 -39 1 -89 -4 -158 -16 -48 -8 -65 6
-33 28 15 11 17 17 8 23 -8 4 -21 -3 -36 -20 -19 -23 -31 -27 -66 -25 -23 1
-49 -1 -57 -5 -17 -7 -71 -14 -112 -15 -22 -1 -26 -5 -21 -18 6 -15 4 -16 -9
-5 -19 15 -49 6 -41 -14 3 -8 9 -14 15 -14 5 0 6 6 2 13 -5 9 -4 9 6 0 7 -7
22 -8 39 -3 14 4 35 4 46 -1 33 -13 85 -10 101 5 8 9 28 13 51 11 21 -2 56 2
78 8 22 7 110 12 200 13 163 1 214 7 250 29 11 7 48 12 85 11 81 -2 124 18
143 66 6 18 -10 24 -95 32 -30 2 -39 -1 -43 -15z m55 -39 c0 -5 -8 -10 -17
-10 -15 0 -16 2 -3 10 19 12 20 12 20 0z m-80 -25 c-7 -8 -16 -12 -21 -9 -13
8 -1 24 18 24 13 0 13 -3 3 -15z m-540 -71 c0 -2 -7 -4 -15 -4 -8 0 -15 4 -15
10 0 5 7 7 15 4 8 -4 15 -8 15 -10z"/>
<path d="M28035 4640 c3 -5 8 -10 11 -10 2 0 4 5 4 10 0 6 -5 10 -11 10 -5 0
-7 -4 -4 -10z"/>
<path d="M26945 4631 c3 -6 14 -9 25 -8 24 2 15 17 -11 17 -11 0 -18 -4 -14
-9z"/>
<path d="M26455 4580 c3 -5 10 -10 16 -10 5 0 9 5 9 10 0 6 -7 10 -16 10 -8 0
-12 -4 -9 -10z"/>
<path d="M28130 4563 c0 -15 -2 -16 -10 -3 -8 13 -10 12 -10 -2 0 -10 -6 -18
-12 -18 -7 0 -22 -8 -33 -17 -20 -15 -20 -15 4 -10 16 4 34 -2 56 -18 24 -19
34 -22 43 -13 9 9 18 8 37 -2 14 -7 28 -11 31 -7 6 6 -16 18 -59 31 -9 3 -20
19 -23 36 -7 34 -24 51 -24 23z"/>
<path d="M28293 4523 c-30 -6 -29 -21 1 -29 29 -7 46 1 46 22 0 14 -6 15 -47
7z"/>
<path d="M26188 4513 c7 -3 16 -2 19 1 4 3 -2 6 -13 5 -11 0 -14 -3 -6 -6z"/>
<path d="M28262 4435 c10 -10 49 -14 43 -4 -4 5 -16 9 -27 9 -12 0 -19 -2 -16
-5z"/>
<path d="M28447 4350 c-3 -10 -13 -19 -23 -19 -11 1 -32 -4 -49 -9 -25 -9 -16
-10 56 -11 76 -1 88 2 105 20 19 22 19 22 -5 9 -20 -10 -27 -9 -51 9 -27 19
-28 19 -33 1z"/>
<path d="M28546 2083 c-2 -3 0 -16 5 -30 5 -14 7 -28 4 -32 -2 -5 7 -13 20
-19 27 -13 34 -32 11 -32 -14 0 -16 -23 -3 -36 4 -4 7 -17 7 -30 0 -22 17 -34
51 -34 10 0 19 -4 19 -10 0 -5 -7 -10 -15 -10 -13 0 -15 -11 -12 -59 2 -33 10
-67 17 -77 8 -9 15 -29 15 -43 0 -19 6 -27 23 -29 23 -3 31 13 10 20 -7 3 -9
11 -4 24 8 18 9 18 17 -5 5 -13 7 -32 4 -42 -7 -22 -45 -25 -63 -7 -9 9 -12 9
-12 -1 0 -7 9 -15 21 -18 11 -3 16 -9 11 -12 -7 -4 -5 -13 4 -25 8 -11 14 -14
14 -8 0 7 4 12 10 12 5 0 9 -11 8 -25 -2 -16 -7 -24 -15 -21 -18 7 -16 -16 3
-40 14 -17 15 -17 10 -1 -9 29 16 15 36 -19 9 -16 18 -45 20 -64 3 -30 0 -35
-19 -38 -19 -3 -21 -7 -13 -22 13 -24 41 -34 52 -18 6 10 8 8 8 -4 0 -10 -5
-18 -11 -18 -5 0 1 -15 14 -32 21 -29 36 -56 42 -80 2 -5 3 -26 4 -48 0 -22 4
-39 9 -39 4 1 15 1 25 0 14 -1 16 -5 7 -20 -15 -28 -13 -84 3 -78 13 4 57 -37
57 -55 0 -6 -8 -4 -18 5 -25 23 -27 22 -27 -10 0 -16 11 -43 24 -62 14 -19 19
-31 12 -27 -10 7 -11 4 -3 -10 16 -31 48 -55 74 -57 28 -2 64 -34 69 -61 3
-13 18 -22 49 -30 26 -7 62 -22 82 -34 89 -55 159 -65 338 -47 70 6 86 15 76
40 -8 21 -28 15 -40 -12 -9 -20 -10 -19 -32 6 -13 14 -24 20 -24 14 0 -18 -20
-16 -20 1 0 8 6 17 13 19 7 4 6 6 -4 6 -22 1 -33 -28 -18 -45 8 -10 8 -14 1
-14 -6 0 -17 9 -25 21 -10 14 -28 21 -55 23 -51 4 -92 30 -92 57 0 18 -4 21
-28 16 -38 -8 -52 3 -55 41 -1 18 -6 32 -10 32 -4 0 -11 8 -14 18 -4 9 -14 22
-22 29 -13 10 -12 11 9 6 l25 -6 -24 26 c-13 15 -28 24 -32 21 -5 -3 -9 4 -9
15 0 20 -43 61 -65 61 -7 0 -18 6 -24 14 -10 11 -9 16 5 24 15 8 14 15 -17 70
-18 33 -38 60 -43 59 -6 -1 -11 5 -11 14 0 8 -15 43 -33 77 -18 34 -31 62 -28
62 3 0 -4 17 -16 38 -11 20 -22 48 -24 62 -5 44 -24 123 -30 129 -4 3 -9 0
-11 -6 -8 -23 -20 -14 -16 11 4 17 -2 30 -16 42 -12 10 -21 23 -21 29 0 16
-51 60 -69 60 -10 0 -17 10 -19 29 -3 27 -2 29 14 15 15 -12 17 -12 12 1 -3 9
-17 15 -34 14 -16 0 -35 6 -42 13 -7 7 -11 13 -7 13 3 0 1 9 -5 21 -8 15 -8
24 0 34 12 15 3 85 -11 85 -5 0 -9 5 -9 10 0 6 7 10 15 10 8 0 15 -6 15 -14 0
-7 6 -19 14 -25 7 -6 16 -25 20 -41 3 -17 10 -30 16 -30 14 0 13 23 -2 38 -9
9 -8 12 4 12 9 0 19 -9 23 -19 3 -11 22 -29 41 -40 31 -18 35 -19 41 -5 4 10
-4 24 -23 39 -18 15 -29 33 -29 51 -1 22 -7 30 -23 32 -12 2 -28 12 -36 23
-15 21 -32 10 -21 -13 3 -7 -2 -3 -11 10 -9 12 -22 22 -29 22 -20 0 -51 33
-62 67 -6 17 -9 33 -7 36 3 2 -4 7 -15 10 -11 2 -22 3 -25 0z m164 -173 c0 -5
-2 -10 -4 -10 -3 0 -8 5 -11 10 -3 6 -1 10 4 10 6 0 11 -4 11 -10z m600 -1204
c0 -9 -7 -12 -21 -9 -16 4 -17 8 -7 14 19 13 28 11 28 -5z"/>
<path d="M28620 2065 c7 -8 17 -15 22 -15 6 0 5 7 -2 15 -7 8 -17 15 -22 15
-6 0 -5 -7 2 -15z"/>
<path d="M28660 2076 c0 -1 5 -17 11 -35 11 -31 23 -39 34 -22 8 14 -16 61
-32 61 -7 0 -13 -2 -13 -4z"/>
<path d="M31909 2037 c10 -23 21 -58 25 -77 4 -21 24 -54 52 -85 25 -27 48
-62 51 -77 3 -16 9 -28 13 -28 3 0 6 -10 6 -22 -1 -15 4 -22 13 -20 9 2 11 -3
7 -13 -3 -10 1 -19 12 -23 9 -4 17 -16 17 -27 0 -15 6 -19 23 -18 13 2 21 -1
17 -7 -7 -12 34 -70 51 -70 16 0 26 -28 13 -36 -6 -3 -17 3 -25 15 -17 24 -34
28 -34 6 0 -9 6 -12 15 -8 9 3 15 2 14 -3 -1 -5 -1 -18 0 -28 1 -16 4 -17 13
-8 18 18 41 15 34 -4 -3 -9 1 -25 9 -37 8 -12 15 -17 15 -12 1 6 7 -1 14 -15
8 -14 12 -28 10 -32 -3 -5 2 -8 11 -8 11 0 15 -5 12 -14 -4 -10 -1 -13 7 -10
8 3 16 -4 19 -16 4 -14 10 -19 18 -14 8 4 10 3 5 -4 -4 -7 -2 -12 5 -12 6 0 9
-8 6 -20 -3 -11 -2 -18 3 -15 4 3 13 -2 20 -10 16 -19 30 -19 30 0 0 13 2 14
14 3 9 -8 11 -17 5 -22 -10 -12 18 -46 38 -46 7 0 13 -5 13 -12 0 -6 3 -8 7
-4 5 4 -1 14 -11 22 -11 8 -14 14 -8 14 7 0 21 -15 31 -32 31 -53 61 -78 76
-65 7 7 11 17 8 22 -2 6 2 2 10 -7 8 -10 21 -18 30 -18 14 0 32 -27 28 -43 -1
-5 3 -6 9 -2 5 3 10 0 10 -7 0 -10 2 -10 9 1 7 11 10 9 16 -8 6 -21 35 -30 35
-11 0 18 29 11 40 -9 15 -29 12 -49 -7 -54 -14 -4 -13 -5 4 -6 12 0 25 4 29
10 4 8 9 7 15 -2 4 -8 4 -16 -2 -20 -14 -8 38 -41 58 -37 9 2 18 9 21 16 2 7
-2 10 -12 6 -9 -3 -16 -1 -16 5 0 5 13 9 30 8 30 -2 45 -20 34 -39 -4 -6 3 -5
15 1 12 7 21 8 21 2 0 -5 -6 -11 -12 -14 -10 -3 -10 -7 -1 -17 9 -10 16 -9 34
4 30 20 45 21 29 1 -11 -13 -10 -14 4 -9 9 3 16 1 16 -5 0 -6 -6 -11 -12 -12
-7 0 -1 -5 15 -11 15 -5 27 -16 27 -24 0 -8 5 -14 11 -14 6 0 9 9 6 20 -3 11
-2 18 3 15 4 -3 25 -7 46 -11 22 -3 47 -13 56 -21 11 -10 28 -13 45 -10 34 6
53 -1 53 -20 0 -13 -3 -13 -15 -3 -9 8 -15 8 -15 2 0 -6 -3 -19 -6 -29 -4 -11
-3 -14 3 -7 4 7 19 11 33 10 14 -1 41 3 61 10 l36 12 -2 -29 c-2 -38 7 -43 52
-28 26 8 38 9 41 1 2 -6 9 -9 17 -6 7 3 24 0 36 -6 12 -7 41 -12 64 -12 35 1
45 -3 64 -29 14 -19 28 -28 38 -25 8 3 24 1 36 -5 12 -7 22 -8 24 -3 2 5 40 9
86 7 107 -2 105 -2 83 -14 -10 -6 -34 -9 -52 -6 -29 5 -32 4 -20 -8 19 -19 62
-29 70 -16 4 6 16 11 27 11 10 0 19 5 19 10 0 6 6 10 14 10 17 0 27 -78 11
-84 -5 -2 -2 -5 8 -5 9 -1 17 4 17 10 0 5 5 7 10 4 6 -3 10 3 10 15 0 12 5 18
10 15 6 -3 10 -2 10 4 0 5 -6 12 -12 14 -8 4 -7 6 3 6 9 1 20 -7 23 -16 6 -14
9 -15 16 -3 10 17 52 21 63 6 5 -8 10 -6 17 4 5 8 10 10 10 4 0 -13 34 -12 52
3 7 6 24 9 38 7 64 -7 100 -6 112 3 7 6 24 11 38 11 26 0 141 10 175 16 11 1
65 6 120 11 57 4 131 18 173 31 40 13 84 24 97 24 14 0 48 11 77 24 29 13 116
48 193 77 77 29 143 58 147 65 4 6 19 15 33 18 14 4 25 13 25 21 0 8 8 15 18
15 10 0 27 7 38 15 10 8 25 15 33 15 7 0 36 16 62 35 27 19 54 35 59 35 14 0
13 17 -2 26 -7 5 -8 3 -3 -7 8 -12 6 -12 -8 -1 -16 14 -57 8 -57 -7 0 -5 -20
-16 -44 -25 -26 -10 -47 -26 -54 -41 -12 -25 -25 -29 -100 -26 -26 0 -32 -3
-30 -17 2 -12 -5 -18 -22 -20 -14 -2 -34 -12 -45 -21 -11 -10 -47 -24 -80 -31
-33 -8 -69 -20 -80 -27 -24 -15 -154 -35 -169 -26 -6 4 -5 -1 3 -10 12 -15 10
-18 -18 -23 -19 -4 -30 -12 -28 -19 3 -7 -6 -12 -22 -13 -104 -7 -151 -16
-151 -28 0 -24 -283 2 -339 31 -16 8 -63 20 -103 26 -40 6 -82 15 -94 19 -11
5 -38 7 -60 5 -45 -3 -104 12 -104 26 0 6 -4 7 -10 4 -5 -3 -22 0 -37 8 -15 8
-44 17 -63 20 -33 6 -34 6 -15 -9 19 -16 19 -16 -14 -10 -18 3 -47 6 -63 6
-16 0 -27 4 -23 9 9 16 -15 24 -30 11 -11 -9 -15 -9 -15 -1 0 6 -11 11 -24 11
-14 0 -28 5 -31 10 -4 6 -10 8 -14 6 -4 -3 -20 4 -37 15 -16 10 -42 19 -57 19
-15 0 -44 7 -64 15 -19 8 -44 15 -55 15 -25 0 -81 29 -91 47 -5 8 -16 11 -27
8 -10 -3 -21 -1 -24 4 -4 5 -28 13 -54 17 -26 4 -69 17 -96 30 -27 13 -74 29
-104 36 -30 7 -57 19 -59 26 -3 6 -13 12 -23 12 -11 0 -22 5 -25 10 -3 6 -19
10 -34 10 -29 0 -184 71 -196 89 -3 6 -12 8 -20 4 -8 -3 -15 0 -15 7 0 6 -5 8
-12 4 -6 -4 -8 -3 -4 4 8 14 -62 72 -96 79 -19 4 -28 12 -28 25 0 10 -4 16
-10 13 -5 -3 -10 0 -10 7 0 8 -3 9 -8 3 -12 -18 -46 -11 -50 10 -4 21 -69 85
-115 113 -15 9 -29 24 -32 33 -3 10 -17 24 -30 33 -14 9 -25 21 -25 27 0 16
-30 42 -70 60 -28 13 -39 24 -43 48 -4 19 -13 31 -23 31 -8 0 -21 14 -27 30
-6 17 -15 30 -20 30 -4 0 -5 16 -1 35 6 31 3 36 -25 52 -17 10 -31 22 -31 27
0 5 -21 29 -47 55 -25 25 -44 38 -40 29 9 -25 -4 -22 -51 12 l-41 29 18 -42z
m631 -847 c0 -5 -4 -10 -10 -10 -5 0 -10 5 -10 10 0 6 5 10 10 10 6 0 10 -4
10 -10z m134 -45 c-4 -8 -10 -12 -15 -9 -14 8 -10 24 6 24 9 0 12 -6 9 -15z
m601 -155 c-3 -5 -14 -10 -23 -10 -15 0 -15 2 -2 10 20 13 33 13 25 0z m-70
-20 c3 -5 1 -10 -4 -10 -6 0 -11 5 -11 10 0 6 2 10 4 10 3 0 8 -4 11 -10z
m290 -30 c13 -5 14 -9 5 -9 -8 0 -24 4 -35 9 -13 5 -14 9 -5 9 8 0 24 -4 35
-9z m-270 -70 c3 -5 -3 -10 -14 -10 -12 0 -21 5 -21 10 0 6 6 10 14 10 8 0 18
-4 21 -10z m205 -96 c0 -2 -9 -4 -21 -4 -11 0 -18 4 -14 10 5 8 35 3 35 -6z"/>
<path d="M28640 2028 c0 -8 6 -23 14 -33 13 -18 14 -18 9 8 -6 29 -23 48 -23
25z"/>
<path d="M28910 1915 c0 -16 60 -59 100 -70 23 -7 23 -6 -6 19 -18 14 -37 26
-43 26 -6 0 -16 9 -23 20 -15 24 -28 26 -28 5z"/>
<path d="M5298 1803 c6 -2 18 -2 25 0 6 3 1 5 -13 5 -14 0 -19 -2 -12 -5z"/>
<path d="M11762 1806 c9 -11 -17 -37 -33 -34 -6 2 -14 -3 -16 -11 -4 -10 1
-11 18 -6 13 4 27 12 30 18 4 5 12 6 18 3 18 -12 13 10 -6 25 -10 7 -15 10
-11 5z"/>
<path d="M11560 1786 c-9 -12 -8 -17 8 -27 11 -7 18 -19 15 -26 -3 -7 0 -13 7
-13 7 0 28 -13 47 -30 18 -16 31 -30 28 -30 -3 0 -1 -9 4 -19 9 -15 7 -20 -9
-24 -13 -3 -24 1 -30 13 -7 12 -17 17 -32 13 -18 -4 -20 -3 -8 6 11 7 12 13 4
21 -8 8 -15 0 -26 -27 l-14 -38 45 -1 c26 -1 56 -4 68 -8 18 -6 23 -2 29 19 5
21 8 23 18 12 30 -37 114 -17 101 24 -5 14 -1 19 12 20 13 1 11 3 -7 9 -28 9
-28 9 58 15 67 5 86 11 77 26 -4 5 1 9 10 9 9 0 14 4 10 10 -3 5 -25 1 -52
-11 -30 -13 -65 -19 -97 -18 -28 1 -60 -1 -71 -4 -22 -7 -120 35 -108 46 3 4
-1 7 -10 7 -9 0 -21 9 -27 20 -13 24 -33 26 -50 6z m387 -72 c-3 -3 -12 -4
-19 -1 -8 3 -5 6 6 6 11 1 17 -2 13 -5z m-234 -34 c-6 -22 -18 -26 -28 -10 -8
13 3 30 20 30 8 0 11 -7 8 -20z m57 -10 c-8 -5 -19 -10 -25 -10 -5 0 -3 5 5
10 8 5 20 10 25 10 6 0 3 -5 -5 -10z"/>
<path d="M11410 1768 c-28 -19 -46 -22 -96 -19 -34 1 -64 -1 -67 -6 -3 -4 16
-9 41 -10 25 -2 50 -7 56 -13 5 -5 25 -10 42 -10 18 0 36 -4 39 -10 9 -15 43
-12 53 5 7 14 11 13 27 -5 18 -20 41 -28 30 -10 -3 6 1 10 9 10 21 0 20 13 -1
32 -27 23 -64 29 -80 12 -8 -8 -24 -13 -36 -13 l-22 2 21 4 c16 3 21 11 20 29
0 13 -1 24 -1 24 0 0 -16 -10 -35 -22z"/>
<path d="M11070 1762 c0 -24 77 -111 109 -124 14 -5 44 -12 66 -14 41 -4 153
-40 169 -55 20 -18 -4 -20 -60 -5 -33 8 -96 14 -141 15 -59 0 -89 4 -107 16
-14 10 -23 21 -20 26 3 5 -3 9 -13 10 -10 0 -39 4 -65 8 -32 5 -46 4 -45 -3 3
-13 -102 -26 -124 -15 -11 6 -21 4 -28 -5 -16 -19 -175 -30 -204 -14 -31 18
-51 16 -62 -7 -6 -11 -20 -24 -32 -30 -26 -14 -129 -4 -126 12 3 16 -48 23
-169 22 -60 0 -113 3 -119 6 -14 10 -179 13 -179 4 0 -7 -50 2 -81 16 -10 3
-20 2 -24 -4 -3 -6 -23 -12 -43 -12 -30 -2 -32 -3 -9 -6 15 -2 27 -8 27 -13 0
-24 -15 -40 -35 -40 -13 0 -27 -4 -30 -10 -8 -13 -75 -13 -95 0 -11 7 -1 10
36 10 55 0 83 17 62 38 -16 16 -36 15 -101 -7 -30 -11 -82 -23 -114 -26 -32
-4 -62 -11 -68 -15 -5 -4 -22 -8 -38 -8 -22 0 -25 3 -16 14 6 7 9 19 6 26 -4
9 -6 7 -6 -3 -1 -16 -26 -21 -191 -34 -14 -2 -27 -4 -30 -5 -3 -1 -13 -1 -24
0 -10 1 -34 -7 -54 -17 -26 -13 -36 -15 -39 -6 -3 9 -40 11 -149 7 -94 -3
-150 -2 -158 5 -8 7 -24 7 -47 1 -49 -14 -79 -12 -79 5 0 8 -8 15 -17 16 -12
0 -13 2 -5 6 7 3 19 -1 27 -7 10 -9 15 -9 15 -1 0 12 -33 21 -65 18 -11 -1
-43 2 -70 6 -28 4 -71 3 -96 -1 -67 -13 -119 -4 -129 22 -7 17 -9 18 -9 4 -1
-22 -29 -24 -37 -3 -5 12 -23 14 -101 11 -52 -2 -97 -7 -100 -10 -4 -3 5 -6
20 -6 14 0 30 -7 35 -16 4 -8 26 -17 48 -20 21 -2 62 -11 89 -18 51 -15 202
-41 290 -50 28 -3 82 -21 121 -40 54 -27 87 -37 143 -41 41 -3 90 -9 110 -15
52 -14 229 -16 243 -2 8 8 14 7 24 -2 18 -18 108 -22 264 -12 47 3 136 6 199
6 71 1 109 5 100 11 -11 7 -8 9 9 9 12 0 22 -5 22 -10 0 -7 21 -9 58 -6 31 3
91 9 132 13 41 4 107 7 145 6 48 -1 62 2 45 7 l-25 8 28 1 c15 1 27 -3 27 -8
0 -5 24 -8 54 -8 30 1 52 5 49 10 -5 8 3 9 122 13 50 2 118 7 152 12 34 4 85
8 112 7 28 -1 51 1 51 4 0 3 19 5 42 4 63 -3 98 6 91 23 -6 17 13 19 20 2 4
-10 8 -10 15 1 5 7 14 11 20 7 6 -3 13 3 17 14 3 11 9 19 13 18 19 -5 162 15
162 22 0 5 -8 14 -17 20 -15 9 -14 10 7 4 14 -4 27 -10 30 -14 9 -12 230 -12
230 1 0 8 5 8 16 -1 19 -17 95 -16 134 0 25 10 27 14 15 26 -7 8 -24 14 -38
14 -29 0 -115 28 -142 47 -17 11 -17 13 -2 13 9 0 25 -4 35 -9 9 -4 60 -18
112 -31 52 -12 105 -28 117 -36 28 -17 47 -18 40 -1 -3 9 7 12 37 10 l41 -2
-40 10 c-21 5 -46 7 -55 4 -22 -9 -148 36 -153 55 -7 25 -117 54 -177 47 -51
-6 -52 -6 -47 18 3 19 0 25 -14 25 -24 0 -34 -17 -19 -35 6 -7 7 -16 2 -19 -5
-3 -29 17 -53 44 -49 56 -69 68 -69 42z m-225 -172 c3 -5 1 -10 -4 -10 -6 0
-11 5 -11 10 0 6 2 10 4 10 3 0 8 -4 11 -10z m212 4 c-3 -3 -12 -4 -19 -1 -8
3 -5 6 6 6 11 1 17 -2 13 -5z m-240 -21 c0 -8 -13 -13 -35 -13 -27 0 -32 3
-24 13 6 7 22 13 35 13 13 0 24 -6 24 -13z m-953 -2 c3 -5 -4 -11 -17 -15 -35
-9 -40 -7 -27 9 14 17 36 20 44 6z m740 -13 c-5 -7 -1 -9 9 -5 10 3 17 2 17
-3 0 -6 -20 -10 -45 -10 -25 0 -45 5 -45 11 0 5 8 9 18 8 32 -3 43 1 36 13 -4
7 -3 8 5 4 6 -4 8 -12 5 -18z m-1021 -15 c4 -3 -2 -13 -14 -21 -23 -16 -32
-12 -23 12 6 16 25 21 37 9z m1654 1 c-3 -3 -12 -4 -19 -1 -8 3 -5 6 6 6 11 1
17 -2 13 -5z m-862 -24 c3 -5 -1 -10 -10 -10 -9 0 -13 5 -10 10 3 6 8 10 10
10 2 0 7 -4 10 -10z m442 -56 c-3 -3 -12 -4 -19 -1 -8 3 -5 6 6 6 11 1 17 -2
13 -5z m-1252 -24 c3 -5 -3 -10 -14 -10 -12 0 -21 5 -21 10 0 6 6 10 14 10 8
0 18 -4 21 -10z"/>
<path d="M11874 1765 c-10 -8 -14 -14 -9 -14 6 0 19 6 29 14 11 8 15 15 10 15
-6 0 -19 -7 -30 -15z"/>
<path d="M5190 1763 c-19 -3 -39 -9 -45 -15 -7 -8 -6 -8 4 -3 9 5 12 4 8 -2
-4 -6 -27 -14 -51 -17 -24 -4 -49 -13 -56 -20 -9 -11 -2 -15 37 -18 43 -4 53
0 93 31 63 49 65 51 55 49 -6 0 -26 -3 -45 -5z"/>
<path d="M7770 1715 c0 -2 19 -14 42 -26 23 -12 47 -26 55 -33 26 -23 39 -31
76 -48 21 -10 45 -18 55 -17 10 0 6 5 -10 11 -16 5 -28 15 -28 22 0 6 -26 25
-57 40 -32 16 -70 35 -85 42 -26 14 -48 18 -48 9z"/>
<path d="M4924 1676 c-3 -9 -14 -16 -24 -16 -10 0 -23 -7 -30 -15 -11 -13 -8
-15 14 -15 15 0 41 7 58 16 17 9 41 14 54 11 14 -2 25 2 28 10 8 20 8 20 -9
20 -8 0 -15 -4 -15 -8 0 -9 -42 -5 -59 5 -6 4 -14 0 -17 -8z"/>
<path d="M11958 1683 c7 -3 16 -2 19 1 4 3 -2 6 -13 5 -11 0 -14 -3 -6 -6z"/>
<path d="M11480 1671 c0 -11 26 -22 34 -14 3 3 3 10 0 14 -7 12 -34 11 -34 0z"/>
<path d="M5068 1653 c7 -3 16 -2 19 1 4 3 -2 6 -13 5 -11 0 -14 -3 -6 -6z"/>
<path d="M10125 1650 c3 -5 22 -10 41 -10 21 0 33 4 29 10 -3 6 -22 10 -41 10
-21 0 -33 -4 -29 -10z"/>
<path d="M32320 1650 c0 -6 5 -8 11 -4 6 3 16 0 21 -7 8 -12 9 -11 5 1 -4 18
-37 27 -37 10z"/>
<path d="M4810 1630 c-8 -5 -11 -12 -8 -16 4 -3 14 1 23 10 18 17 9 21 -15 6z"/>
<path d="M4995 1630 c-3 -5 -13 -10 -22 -10 -9 0 -23 -8 -32 -19 -9 -10 -36
-22 -61 -26 -40 -7 -43 -6 -31 9 11 14 11 16 -3 16 -9 0 -16 -5 -16 -11 0 -6
-6 -9 -13 -6 -7 3 -53 -6 -102 -19 -106 -29 -155 -35 -155 -21 0 6 -3 7 -7 4
-3 -4 -12 -2 -20 5 -11 9 -17 7 -28 -9 -12 -17 -22 -19 -76 -16 -72 5 -112 -3
-106 -20 2 -7 10 -11 16 -9 13 3 15 -24 1 -33 -5 -3 -18 0 -29 7 -16 10 -30
10 -66 0 -25 -7 -56 -12 -69 -12 -14 0 -31 -6 -38 -13 -25 -24 -69 -37 -123
-37 -30 0 -55 -4 -55 -9 0 -12 -55 -24 -102 -23 -20 1 -43 -4 -50 -11 -7 -7
-31 -14 -53 -16 -22 -1 -48 -3 -57 -4 -10 -1 -18 -8 -18 -17 0 -31 -231 -59
-313 -37 -41 11 -61 2 -36 -16 9 -7 14 -18 11 -26 -3 -9 0 -11 9 -6 11 6 11 5
2 -5 -10 -10 -18 -10 -42 0 -17 7 -29 16 -26 20 2 4 -6 5 -19 3 -13 -3 -33 0
-44 6 -14 8 -21 8 -24 0 -2 -7 -12 -7 -31 0 -20 8 -27 7 -27 -1 0 -6 -3 -8 -7
-5 -3 4 -15 -1 -26 -10 -16 -16 -20 -16 -30 -3 -15 18 -29 23 -85 26 -23 1
-49 7 -57 14 -13 10 -19 10 -34 -4 -13 -11 -21 -14 -26 -7 -3 6 -28 11 -56 11
-36 0 -54 5 -69 20 -22 22 -50 26 -67 9 -8 -8 -17 -8 -31 0 -11 6 -30 11 -41
11 -12 0 -21 5 -21 10 0 6 -7 10 -16 10 -9 0 -12 5 -8 12 4 7 3 8 -5 4 -6 -4
-8 -12 -5 -18 5 -7 1 -9 -9 -5 -10 3 -17 2 -17 -3 0 -6 -5 -10 -11 -10 -6 0
-9 6 -6 13 4 10 -2 13 -21 9 l-26 -5 35 -30 c18 -16 46 -33 61 -39 15 -5 29
-17 32 -26 3 -12 4 -11 3 3 -1 11 -12 24 -25 30 -12 5 -21 14 -19 20 6 17 70
13 103 -6 17 -11 37 -19 43 -19 6 0 28 -11 49 -25 20 -13 56 -31 80 -39 24 -9
50 -22 58 -31 9 -8 24 -15 34 -15 10 0 21 -4 25 -9 3 -6 13 -9 23 -9 9 0 49
-2 87 -6 39 -4 139 -9 223 -11 100 -2 158 -8 168 -16 16 -13 23 -12 199 25 66
14 140 26 164 26 52 0 128 22 186 53 11 6 43 14 70 18 28 4 70 13 95 19 127
34 229 65 260 80 19 10 75 32 124 49 49 17 96 37 105 44 9 7 45 27 81 44 36
17 118 56 184 87 65 31 123 56 130 57 6 0 2 4 -9 9 -27 12 -33 12 -40 0z
m-475 -114 c0 -2 -7 -7 -16 -10 -8 -3 -12 -2 -9 4 6 10 25 14 25 6z m-70 -24
c0 -5 -6 -9 -12 -9 -7 -1 -28 -6 -46 -12 -25 -7 -32 -7 -29 2 2 7 11 12 20 12
8 0 19 4 23 8 10 10 44 9 44 -1z m-236 -51 c4 -5 -3 -7 -14 -4 -23 6 -26 13
-6 13 8 0 17 -4 20 -9z m-484 -132 c0 6 5 11 10 11 6 0 10 -7 10 -16 0 -20
-41 -15 -48 6 -5 13 -3 13 11 1 11 -9 17 -10 17 -2z m-800 -29 c0 -5 -5 -10
-11 -10 -5 0 -7 5 -4 10 3 6 8 10 11 10 2 0 4 -4 4 -10z m-65 -10 c-3 -5 1
-10 10 -10 9 0 13 -5 10 -10 -5 -8 -11 -7 -21 1 -12 10 -11 29 2 29 3 0 2 -4
-1 -10z m80 -48 c-21 -5 -45 5 -45 17 0 5 13 4 31 -2 21 -8 26 -13 14 -15z
m55 2 c0 -2 -7 -4 -15 -4 -8 0 -15 4 -15 10 0 5 7 7 15 4 8 -4 15 -8 15 -10z
m395 6 c3 -6 -1 -7 -9 -4 -18 7 -21 14 -7 14 6 0 13 -4 16 -10z"/>
<path d="M11510 1636 c0 -2 7 -6 15 -10 8 -3 15 -1 15 4 0 6 -7 10 -15 10 -8
0 -15 -2 -15 -4z"/>
<path d="M10440 1619 c0 -17 32 -38 58 -39 36 0 29 36 -9 44 -43 8 -49 8 -49
-5z"/>
<path d="M23710 1616 c0 -2 7 -7 16 -10 8 -3 12 -2 9 4 -6 10 -25 14 -25 6z"/>
<path d="M11715 1590 c-3 -6 1 -7 9 -4 18 7 21 14 7 14 -6 0 -13 -4 -16 -10z"/>
<path d="M23955 1550 c-4 -6 1 -17 11 -25 24 -17 32 1 11 22 -11 11 -17 12
-22 3z"/>
<path d="M20329 1442 c-25 -9 -57 -25 -70 -34 -24 -16 -23 -17 14 -6 20 6 37
16 37 21 0 5 12 6 26 3 17 -5 23 -3 19 4 -3 5 1 10 9 10 8 0 18 5 21 10 8 13
-1 12 -56 -8z"/>
<path d="M2320 1430 c0 -5 7 -10 15 -10 8 0 15 5 15 10 0 6 -7 10 -15 10 -8 0
-15 -4 -15 -10z"/>
<path d="M20200 1375 c-14 -8 -20 -14 -14 -15 5 0 19 7 30 15 24 18 16 19 -16
0z"/>
<path d="M2640 1346 c0 -2 7 -6 15 -10 8 -3 15 -1 15 4 0 6 -7 10 -15 10 -8 0
-15 -2 -15 -4z"/>
<path d="M20230 1317 c-19 -13 -68 -32 -108 -42 -69 -16 -103 -35 -66 -35 12
0 15 -3 8 -10 -6 -6 -21 -6 -43 0 -21 6 -40 6 -51 0 -10 -5 -21 -6 -25 -2 -5
4 -5 2 -1 -5 4 -7 13 -10 20 -7 17 7 32 -14 19 -27 -13 -13 -42 -14 -67 -4
-16 7 -18 5 -13 -8 8 -20 -24 -57 -48 -57 -9 0 -28 -6 -43 -14 -34 -17 -228
-31 -237 -16 -8 12 -25 13 -25 1 0 -5 9 -11 20 -14 11 -3 20 -11 20 -19 0 -19
-66 -20 -81 -2 -10 12 -13 12 -23 -1 -6 -8 -28 -16 -48 -17 -64 -5 -43 -24 28
-25 36 -1 74 -5 86 -9 13 -4 18 -2 14 4 -3 6 24 17 67 27 39 10 77 21 82 25 6
5 28 11 50 15 22 4 45 11 50 14 6 4 44 20 85 35 115 42 140 54 140 69 0 10 8
13 25 9 20 -3 33 3 55 28 17 19 33 31 36 28 3 -4 15 3 25 13 14 14 27 18 41
13 17 -5 20 -3 15 10 -4 11 1 18 18 22 14 3 25 10 25 15 0 14 -13 11 -50 -14z"/>
<path d="M2845 1320 c3 -5 10 -10 16 -10 5 0 9 5 9 10 0 6 -7 10 -16 10 -8 0
-12 -4 -9 -10z"/>
<path d="M2616 1257 c-3 -14 0 -25 10 -30 8 -5 32 -23 52 -40 20 -18 32 -25
27 -17 -7 12 -6 13 6 4 21 -16 49 -25 49 -15 0 5 -19 20 -43 34 -23 14 -49 37
-56 51 -18 34 -38 39 -45 13z"/>
<path d="M2740 1231 c0 -6 5 -13 10 -16 6 -3 10 1 10 9 0 9 -4 16 -10 16 -5 0
-10 -4 -10 -9z"/>
<path d="M35787 1202 c-10 -10 -17 -23 -17 -28 0 -5 7 -1 15 10 7 10 18 15 24
11 7 -3 8 0 5 9 -8 20 -7 20 -27 -2z"/>
<path d="M18377 1132 c15 -16 31 -27 34 -26 3 2 18 -4 33 -12 16 -7 34 -14 40
-14 7 0 35 -11 62 -25 27 -14 66 -26 86 -27 21 -1 39 -7 42 -15 3 -7 18 -13
34 -13 15 0 32 -4 38 -9 16 -16 115 -33 244 -41 69 -5 137 -12 153 -15 15 -4
27 -3 27 1 0 5 51 10 112 11 102 2 258 28 258 42 0 5 -60 9 -175 12 -5 0 -83
-2 -172 -5 -98 -2 -161 0 -157 5 3 6 -37 8 -99 5 -98 -4 -104 -3 -100 15 5 19
-10 26 -72 31 -20 2 -29 -1 -27 -9 3 -18 -5 -16 -39 8 -20 14 -38 19 -55 15
-15 -4 -33 -1 -47 9 -12 8 -42 15 -68 15 -56 0 -81 8 -72 23 4 6 -2 8 -15 5
-14 -4 -30 2 -47 18 -37 34 -52 30 -18 -4z"/>
<path d="M19800 1139 c0 -5 5 -7 10 -4 6 3 10 8 10 11 0 2 -4 4 -10 4 -5 0
-10 -5 -10 -11z"/>
<path d="M35705 1129 c-4 -6 -5 -13 -2 -16 7 -7 27 6 27 18 0 12 -17 12 -25
-2z"/>
<path d="M28840 1081 c0 -6 5 -13 10 -16 6 -3 10 1 10 9 0 9 -4 16 -10 16 -5
0 -10 -4 -10 -9z"/>
<path d="M23766 1047 c3 -10 9 -15 12 -12 3 3 0 11 -7 18 -10 9 -11 8 -5 -6z"/>
<path d="M32750 1041 c0 -5 -8 -12 -17 -14 -11 -3 -7 -5 10 -6 27 -1 36 12 17
24 -5 3 -10 2 -10 -4z"/>
<path d="M23786 985 c4 -8 11 -15 16 -15 6 0 5 6 -2 15 -7 8 -14 15 -16 15 -2
0 -1 -7 2 -15z"/>
<path d="M29284 815 c8 -8 18 -15 22 -15 3 0 1 7 -6 15 -7 8 -17 15 -22 15 -5
0 -3 -7 6 -15z"/>
<path d="M23721 783 c12 -15 12 -16 -3 -11 -10 4 -19 1 -22 -9 -5 -11 -2 -14
9 -9 9 3 13 2 10 -4 -3 -6 2 -13 12 -17 10 -3 27 -16 38 -28 11 -12 30 -27 43
-34 13 -7 21 -18 19 -26 -3 -7 1 -22 8 -33 16 -22 11 -33 -11 -25 -31 12 -12
-25 24 -45 29 -16 45 -19 72 -13 43 10 60 4 60 -19 0 -9 6 -23 14 -29 12 -10
13 -8 9 8 -7 26 12 27 58 4 l34 -17 -30 -7 c-31 -6 -24 -12 25 -23 14 -3 34
-12 45 -21 11 -9 15 -14 8 -11 -6 4 -13 1 -15 -5 -2 -6 -32 -13 -66 -16 -34
-3 -62 -9 -62 -12 0 -3 11 -11 25 -18 14 -6 25 -8 25 -5 0 4 20 7 44 6 45 -1
83 17 72 35 -4 5 -2 12 3 16 6 3 8 12 4 20 -3 8 0 15 6 15 7 0 14 -7 18 -16 4
-10 13 -14 26 -10 12 3 27 0 34 -6 9 -7 17 -7 27 1 9 8 16 8 20 2 8 -12 -26
-23 -50 -16 -12 3 -10 1 4 -7 19 -9 28 -9 44 1 15 9 23 9 33 1 8 -7 19 -9 25
-5 18 11 11 24 -17 27 -20 2 -28 8 -27 21 2 20 -35 24 -54 5 -8 -8 -18 -4 -39
19 -36 38 -59 50 -113 58 -51 8 -65 17 -85 56 -8 15 -31 37 -52 50 -21 13 -41
28 -45 33 -6 8 -11 6 -17 -3 -7 -11 -10 -9 -15 7 -4 12 -19 23 -36 27 -15 3
-39 17 -52 30 -13 13 -34 35 -48 49 -29 30 -62 38 -39 9z m194 -223 c3 -5 -1
-10 -9 -10 -9 0 -16 5 -16 10 0 6 4 10 9 10 6 0 13 -4 16 -10z m235 -174 c0
-11 -19 -15 -25 -6 -3 5 1 10 9 10 9 0 16 -2 16 -4z"/>
<path d="M34612 781 c-10 -6 -4 -10 19 -15 36 -7 51 0 29 14 -19 12 -31 12
-48 1z"/>
<path d="M24018 713 c7 -3 16 -2 19 1 4 3 -2 6 -13 5 -11 0 -14 -3 -6 -6z"/>
<path d="M33381 716 c2 -2 15 -9 29 -16 23 -12 24 -12 11 3 -7 10 -20 17 -29
17 -8 0 -13 -2 -11 -4z"/>
<path d="M33500 716 c0 -2 7 -6 15 -10 8 -3 15 -1 15 4 0 6 -7 10 -15 10 -8 0
-15 -2 -15 -4z"/>
<path d="M33617 696 c11 -14 21 -20 25 -13 7 11 -14 37 -32 37 -6 0 -3 -10 7
-24z"/>
<path d="M33577 685 c-9 -8 -21 -15 -28 -15 -19 0 -1 -13 22 -17 13 -2 18 1
13 8 -3 6 0 15 7 20 7 4 11 11 7 14 -3 3 -13 -1 -21 -10z"/>
<path d="M23620 680 c0 -6 7 -13 15 -16 8 -4 15 -14 16 -23 0 -11 2 -12 6 -3
3 8 -4 22 -16 33 -12 11 -21 15 -21 9z"/>
<path d="M24148 672 c-6 -22 8 -42 29 -42 18 0 16 10 -6 39 -18 23 -18 23 -23
3z"/>
<path d="M23945 670 c3 -5 11 -10 16 -10 6 0 7 5 4 10 -3 6 -11 10 -16 10 -6
0 -7 -4 -4 -10z"/>
<path d="M33780 662 c0 -5 7 -13 16 -16 10 -4 14 -1 12 6 -5 15 -28 23 -28 10z"/>
<path d="M33760 630 c0 -6 -4 -9 -9 -5 -5 3 -13 0 -17 -6 -4 -8 5 -9 30 -6 20
3 38 2 40 -2 3 -4 22 -8 43 -8 l38 -2 -45 13 c-25 7 -53 16 -62 21 -11 4 -18
3 -18 -5z"/>
<path d="M23670 618 c0 -18 18 -34 28 -24 3 4 -2 14 -11 23 -16 16 -17 16 -17
1z"/>
<path d="M29220 615 c0 -8 7 -15 15 -15 8 0 15 7 15 15 0 8 -7 15 -15 15 -8 0
-15 -7 -15 -15z"/>
<path d="M33678 623 c6 -2 18 -2 25 0 6 3 1 5 -13 5 -14 0 -19 -2 -12 -5z"/>
<path d="M33971 614 c0 -11 3 -14 6 -6 3 7 2 16 -1 19 -3 4 -6 -2 -5 -13z"/>
<path d="M24076 596 c6 -15 34 -30 34 -18 0 4 -9 13 -20 19 -16 11 -18 10 -14
-1z"/>
<path d="M24208 586 c-48 -15 -54 -22 -29 -36 37 -19 133 13 116 39 -8 14 -39
12 -87 -3z"/>
<path d="M29455 590 l-30 -8 33 -1 c17 0 32 4 32 9 0 6 -1 9 -2 9 -2 -1 -16
-5 -33 -9z"/>
<path d="M34133 583 c9 -2 23 -2 30 0 6 3 -1 5 -18 5 -16 0 -22 -2 -12 -5z"/>
<path d="M23710 572 c0 -13 23 -32 39 -32 11 0 10 4 -4 20 -19 21 -35 26 -35
12z"/>
<path d="M23905 490 c3 -5 8 -10 11 -10 2 0 4 5 4 10 0 6 -5 10 -11 10 -5 0
-7 -4 -4 -10z"/>
<path d="M24188 383 c7 -3 16 -2 19 1 4 3 -2 6 -13 5 -11 0 -14 -3 -6 -6z"/>
</g>
</svg>
