<svg width="155" height="155" viewBox="0 0 155 155" fill="none" xmlns="http://www.w3.org/2000/svg">
<g clip-path="url(#clip0_17_2)">
<g opacity="0.987" filter="url(#filter0_d_17_2)">
<mask id="path-1-inside-1_17_2" fill="white">
<path fill-rule="evenodd" clip-rule="evenodd" d="M153 76.5141C153 78.8316 153 81.1492 153 83.4667C152.516 93.7496 150.213 103.56 146.089 112.896C143.975 117.413 141.338 121.572 138.176 125.372C137.718 125.751 137.352 126.194 137.08 126.706C136.985 126.706 136.89 126.706 136.794 126.706C136.029 127.788 135.108 128.709 134.03 129.468C134.051 129.58 134.019 129.675 133.934 129.754C128.981 134.215 123.389 137.691 117.157 140.182C105.221 144.778 92.829 146.65 79.9785 145.802C68.2909 145.004 57.0103 142.464 46.137 138.182C37.2909 134.48 29.3468 129.417 22.3049 122.991C22.2205 122.913 22.1887 122.818 22.2096 122.706C22.0253 122.684 21.8664 122.605 21.733 122.468C21.4189 122.203 21.1647 121.901 20.9703 121.563C20.875 121.563 20.7797 121.563 20.6843 121.563C20.6843 121.468 20.6843 121.372 20.6843 121.277C20.3348 121.118 20.0806 120.865 19.9217 120.515C19.8264 120.515 19.7311 120.515 19.6357 120.515C19.1704 119.844 18.6144 119.24 17.9675 118.706C13.5293 113.79 9.875 108.33 7.00473 102.324C4.25159 96.1165 2.58334 89.6081 2 82.8C2 80.0697 2 77.3396 2 74.6093C2.55965 68.4688 3.9419 62.5321 6.14678 56.7994C8.31701 51.5533 11.018 46.6008 14.2497 41.9418C16.6647 38.5136 19.2863 35.2754 22.1143 32.2273C22.1929 32.1429 22.2882 32.1112 22.4003 32.1321C22.4612 31.9168 22.5724 31.7264 22.7339 31.5606C23.6927 30.6325 24.6302 29.696 25.5461 28.751C25.712 28.5897 25.9026 28.4786 26.1181 28.4177C26.1181 28.3225 26.1181 28.2272 26.1181 28.132C26.4676 27.9732 26.7218 27.7193 26.8807 27.3701C27.1282 27.2216 27.3824 27.0628 27.6433 26.8939C34.6134 20.4583 42.6527 15.8391 51.7614 13.0364C54.601 12.2591 57.4926 11.7829 60.4362 11.6078C65.7697 9.25189 71.267 7.37882 76.928 5.98859C84.5082 4.42899 92.0073 4.71471 99.4255 6.84575C105.291 8.60948 110.82 11.1175 116.013 14.3697C122.262 18.4584 127.839 23.2681 132.743 28.7987C132.943 29.026 133.086 29.2799 133.172 29.5606C133.267 29.5606 133.362 29.5606 133.458 29.5606C139.263 36.5102 143.918 44.193 147.423 52.6088C149.665 58.0836 151.286 63.7663 152.285 69.6568C152.6 71.9493 152.838 74.2351 153 76.5141ZM102.381 16.5127C104.056 16.336 105.216 17.0027 105.86 18.5127C105.942 21.4054 105.227 24.088 103.715 26.5605C102.668 27.9273 101.428 29.102 99.9975 30.0844C98.8516 30.7521 97.7077 31.4187 96.5657 32.0845C92.6499 34.0087 88.7732 35.9769 84.9356 37.9894C80.2678 39.7454 75.5967 41.5233 70.9224 43.3228C68.866 43.9835 66.7688 44.5232 64.6307 44.9419C62.9036 45.4263 61.1877 45.9343 59.483 46.4658C57.9066 46.8189 56.3178 46.9142 54.7165 46.7515C52.4956 46.0136 51.3199 44.4738 51.1894 42.1323C51.268 40.7363 51.697 39.4664 52.4763 38.3227C54.6822 35.3925 57.3673 32.9957 60.5316 31.1321C65.6841 28.3679 71.0224 26.0186 76.5467 24.0843C80.7029 22.8279 84.8339 21.5897 88.9394 20.3699C93.2709 18.5972 97.7515 17.3114 102.381 16.5127ZM30.4078 32.2273C32.4234 31.9447 33.8693 32.7067 34.7453 34.5131C35.0386 35.5582 35.0386 36.6058 34.7453 37.656C33.2555 41.1776 30.9199 44.0189 27.7386 46.18C26.6836 46.9179 25.508 47.3465 24.2115 47.4658C22.4717 47.4157 21.3754 46.5585 20.9227 44.8943C20.8591 44.3864 20.8591 43.8784 20.9227 43.3705C21.4469 41.7514 22.1778 40.2275 23.1152 38.7989C24.5028 36.9472 26.0439 35.2328 27.7386 33.6559C28.5564 33.0254 29.4462 32.5492 30.4078 32.2273ZM111.818 36.3227C113.587 36.1963 114.811 36.9265 115.488 38.5132C115.552 38.9577 115.552 39.4021 115.488 39.8466C115.348 40.2541 115.158 40.6351 114.916 40.9894C113.574 42.2054 112.128 43.2689 110.579 44.18C109.395 44.7359 108.22 45.3074 107.052 45.8943C105.621 46.5402 104.16 47.1116 102.667 47.6087C101.16 48.1326 99.6972 48.0373 98.2816 47.3229C97.027 46.3611 96.6297 45.1071 97.09 43.5609C97.4875 42.5283 98.1071 41.6553 98.9489 40.9418C102.969 38.6559 107.259 37.1161 111.818 36.3227ZM131.837 47.7515C133.641 47.3564 135.15 47.8326 136.365 49.1801C137.257 51.1736 136.89 52.9038 135.269 54.3707C134.861 54.6198 134.48 54.9055 134.125 55.2279C131.85 56.3959 129.563 57.5071 127.261 58.5613C125.563 59.0967 124.148 58.7 123.019 57.3708C122.461 56.4309 122.365 55.4467 122.733 54.4183C123.785 52.3931 125.262 50.7581 127.166 49.5135C128.669 48.7353 130.226 48.1479 131.837 47.7515ZM73.9729 50.8944C76.4177 50.7007 78.4196 51.5262 79.9785 53.3707C81.0116 55.2256 80.821 56.9399 79.4066 58.5137C78.7642 59.168 78.0652 59.7552 77.3093 60.2756C75.0793 61.7542 72.7597 63.0558 70.3504 64.1805C65.5206 66.2337 60.6271 68.1385 55.6698 69.8949C53.2717 70.6305 50.8885 71.3607 48.5202 72.0854C46.7686 72.5179 45.021 72.9624 43.2771 73.4188C36.9323 75.8133 30.3864 77.5277 23.6395 78.5618C22.718 78.6253 21.7965 78.6253 20.875 78.5618C18.7535 78.0805 17.7208 76.7631 17.7768 74.6093C18.0444 73.6764 18.5052 72.8511 19.1591 72.1331C22.2187 69.1891 25.6823 66.8239 29.5499 65.0376C39.5049 60.7181 49.7685 57.353 60.3409 54.9422C63.8492 53.8591 67.3445 52.7162 70.827 51.5135C71.8794 51.2574 72.9281 51.0511 73.9729 50.8944ZM108.958 73.8474C111.819 73.7369 113.201 75.102 113.105 77.9427C113.743 79.1186 113.791 80.325 113.248 81.5619C112.619 82.7467 111.761 83.7468 110.674 84.5619C106.251 87.4541 101.548 89.8034 96.5657 91.6097C90.6763 93.7914 84.7024 95.7594 78.6439 97.5146C71.9565 99.1271 65.3788 101 58.911 103.134C57.7833 103.395 56.6394 103.569 55.4792 103.658C53.7122 103.625 52.4252 102.831 51.6184 101.277C51.3701 100.197 51.4655 99.149 51.9044 98.1337C53.2392 95.8003 55.0664 93.9587 57.3857 92.6098C59.4918 91.4308 61.6208 90.3038 63.7727 89.2287C70.2639 86.2596 76.9052 83.7199 83.6963 81.6095C86.9622 80.6352 90.2034 79.6511 93.4198 78.657C98.3178 76.1869 103.498 74.5837 108.958 73.8474ZM138.701 79.8475C140.15 79.7155 141.453 80.0807 142.609 80.9428C143.772 82.2444 143.868 83.6254 142.895 85.0858C142.095 86.017 141.158 86.7789 140.083 87.3715C137.532 88.5567 134.879 89.4933 132.123 90.1811C130.234 90.4775 128.914 89.7632 128.167 88.0382C127.951 86.5908 128.412 85.4003 129.549 84.4667C131.031 83.3382 132.619 82.3858 134.316 81.6095C135.771 80.972 137.234 80.3847 138.701 79.8475ZM115.441 94.3241C116.549 94.1877 117.598 94.3623 118.586 94.8479C119.988 96.0727 120.258 97.5175 119.397 99.1813C118.777 100.161 117.952 100.923 116.918 101.467C113.768 102.873 110.51 104 107.147 104.848C105.241 105.293 103.334 105.737 101.427 106.182C99.865 106.362 98.7058 105.774 97.9479 104.42C97.5666 102.8 98.0594 101.515 99.4255 100.562C102.769 98.8128 106.137 97.0984 109.53 95.4193C109.848 95.3241 110.166 95.2289 110.484 95.1336C111.182 95.1019 111.882 95.0701 112.581 95.0384C113.54 94.7687 114.493 94.5306 115.441 94.3241ZM27.3573 97.1813C28.5599 97.0527 29.672 97.2908 30.6938 97.8956C32.4433 97.7918 33.6349 98.5375 34.2686 100.134C34.4575 102.044 33.8855 103.696 32.5527 105.086C30.6329 106.954 28.3608 108.176 25.7367 108.753C24.9741 108.817 24.2115 108.817 23.4489 108.753C23.1045 108.644 22.7867 108.485 22.4956 108.277C22.2379 107.987 21.9519 107.734 21.6376 107.515C19.9709 107.454 18.8746 106.644 18.3488 105.086C18.5151 102.391 19.8021 100.407 22.2096 99.1337C22.9958 98.7347 23.7902 98.3537 24.5928 97.9908C25.5272 97.7023 26.4487 97.4327 27.3573 97.1813ZM38.5107 112.801C39.5328 112.765 40.5497 112.813 41.5612 112.944C43.7006 113.684 44.5426 115.16 44.0874 117.372C43.7793 118.126 43.3185 118.776 42.7052 119.325C41.0782 120.724 39.267 121.804 37.2715 122.563C36.1226 122.789 35.074 122.582 34.1256 121.944C33.2262 121.259 32.4795 120.433 31.8854 119.468C31.4069 117.266 32.1218 115.566 34.0303 114.372C35.4559 113.597 36.9494 113.073 38.5107 112.801ZM91.7992 115.277C92.3115 115.279 92.8199 115.326 93.3245 115.42C93.9077 115.666 94.5114 115.857 95.1357 115.991C96.3532 115.986 97.5609 116.081 98.7582 116.277C101.038 117.039 101.912 118.579 101.38 120.896C100.815 122.008 100.037 122.944 99.0442 123.706C97.0514 124.955 94.9541 126.003 92.7525 126.849C89.9566 127.912 87.0968 128.737 84.173 129.325C77.8745 130.287 71.6782 131.652 65.584 133.42C64.2246 133.741 62.9535 133.551 61.7708 132.849C60.5557 131.82 60.1903 130.534 60.6746 128.992C61.204 127.891 61.9507 126.953 62.9148 126.182C65.0583 124.556 67.3779 123.254 69.8737 122.277C74.8729 120.415 79.9888 118.828 85.2216 117.515C86.4709 117.145 87.6784 116.668 88.8441 116.087C89.8355 115.767 90.8205 115.498 91.7992 115.277Z"/>
</mask>
<path fill-rule="evenodd" clip-rule="evenodd" d="M153 76.5141C153 78.8316 153 81.1492 153 83.4667C152.516 93.7496 150.213 103.56 146.089 112.896C143.975 117.413 141.338 121.572 138.176 125.372C137.718 125.751 137.352 126.194 137.08 126.706C136.985 126.706 136.89 126.706 136.794 126.706C136.029 127.788 135.108 128.709 134.03 129.468C134.051 129.58 134.019 129.675 133.934 129.754C128.981 134.215 123.389 137.691 117.157 140.182C105.221 144.778 92.829 146.65 79.9785 145.802C68.2909 145.004 57.0103 142.464 46.137 138.182C37.2909 134.48 29.3468 129.417 22.3049 122.991C22.2205 122.913 22.1887 122.818 22.2096 122.706C22.0253 122.684 21.8664 122.605 21.733 122.468C21.4189 122.203 21.1647 121.901 20.9703 121.563C20.875 121.563 20.7797 121.563 20.6843 121.563C20.6843 121.468 20.6843 121.372 20.6843 121.277C20.3348 121.118 20.0806 120.865 19.9217 120.515C19.8264 120.515 19.7311 120.515 19.6357 120.515C19.1704 119.844 18.6144 119.24 17.9675 118.706C13.5293 113.79 9.875 108.33 7.00473 102.324C4.25159 96.1165 2.58334 89.6081 2 82.8C2 80.0697 2 77.3396 2 74.6093C2.55965 68.4688 3.9419 62.5321 6.14678 56.7994C8.31701 51.5533 11.018 46.6008 14.2497 41.9418C16.6647 38.5136 19.2863 35.2754 22.1143 32.2273C22.1929 32.1429 22.2882 32.1112 22.4003 32.1321C22.4612 31.9168 22.5724 31.7264 22.7339 31.5606C23.6927 30.6325 24.6302 29.696 25.5461 28.751C25.712 28.5897 25.9026 28.4786 26.1181 28.4177C26.1181 28.3225 26.1181 28.2272 26.1181 28.132C26.4676 27.9732 26.7218 27.7193 26.8807 27.3701C27.1282 27.2216 27.3824 27.0628 27.6433 26.8939C34.6134 20.4583 42.6527 15.8391 51.7614 13.0364C54.601 12.2591 57.4926 11.7829 60.4362 11.6078C65.7697 9.25189 71.267 7.37882 76.928 5.98859C84.5082 4.42899 92.0073 4.71471 99.4255 6.84575C105.291 8.60948 110.82 11.1175 116.013 14.3697C122.262 18.4584 127.839 23.2681 132.743 28.7987C132.943 29.026 133.086 29.2799 133.172 29.5606C133.267 29.5606 133.362 29.5606 133.458 29.5606C139.263 36.5102 143.918 44.193 147.423 52.6088C149.665 58.0836 151.286 63.7663 152.285 69.6568C152.6 71.9493 152.838 74.2351 153 76.5141ZM102.381 16.5127C104.056 16.336 105.216 17.0027 105.86 18.5127C105.942 21.4054 105.227 24.088 103.715 26.5605C102.668 27.9273 101.428 29.102 99.9975 30.0844C98.8516 30.7521 97.7077 31.4187 96.5657 32.0845C92.6499 34.0087 88.7732 35.9769 84.9356 37.9894C80.2678 39.7454 75.5967 41.5233 70.9224 43.3228C68.866 43.9835 66.7688 44.5232 64.6307 44.9419C62.9036 45.4263 61.1877 45.9343 59.483 46.4658C57.9066 46.8189 56.3178 46.9142 54.7165 46.7515C52.4956 46.0136 51.3199 44.4738 51.1894 42.1323C51.268 40.7363 51.697 39.4664 52.4763 38.3227C54.6822 35.3925 57.3673 32.9957 60.5316 31.1321C65.6841 28.3679 71.0224 26.0186 76.5467 24.0843C80.7029 22.8279 84.8339 21.5897 88.9394 20.3699C93.2709 18.5972 97.7515 17.3114 102.381 16.5127ZM30.4078 32.2273C32.4234 31.9447 33.8693 32.7067 34.7453 34.5131C35.0386 35.5582 35.0386 36.6058 34.7453 37.656C33.2555 41.1776 30.9199 44.0189 27.7386 46.18C26.6836 46.9179 25.508 47.3465 24.2115 47.4658C22.4717 47.4157 21.3754 46.5585 20.9227 44.8943C20.8591 44.3864 20.8591 43.8784 20.9227 43.3705C21.4469 41.7514 22.1778 40.2275 23.1152 38.7989C24.5028 36.9472 26.0439 35.2328 27.7386 33.6559C28.5564 33.0254 29.4462 32.5492 30.4078 32.2273ZM111.818 36.3227C113.587 36.1963 114.811 36.9265 115.488 38.5132C115.552 38.9577 115.552 39.4021 115.488 39.8466C115.348 40.2541 115.158 40.6351 114.916 40.9894C113.574 42.2054 112.128 43.2689 110.579 44.18C109.395 44.7359 108.22 45.3074 107.052 45.8943C105.621 46.5402 104.16 47.1116 102.667 47.6087C101.16 48.1326 99.6972 48.0373 98.2816 47.3229C97.027 46.3611 96.6297 45.1071 97.09 43.5609C97.4875 42.5283 98.1071 41.6553 98.9489 40.9418C102.969 38.6559 107.259 37.1161 111.818 36.3227ZM131.837 47.7515C133.641 47.3564 135.15 47.8326 136.365 49.1801C137.257 51.1736 136.89 52.9038 135.269 54.3707C134.861 54.6198 134.48 54.9055 134.125 55.2279C131.85 56.3959 129.563 57.5071 127.261 58.5613C125.563 59.0967 124.148 58.7 123.019 57.3708C122.461 56.4309 122.365 55.4467 122.733 54.4183C123.785 52.3931 125.262 50.7581 127.166 49.5135C128.669 48.7353 130.226 48.1479 131.837 47.7515ZM73.9729 50.8944C76.4177 50.7007 78.4196 51.5262 79.9785 53.3707C81.0116 55.2256 80.821 56.9399 79.4066 58.5137C78.7642 59.168 78.0652 59.7552 77.3093 60.2756C75.0793 61.7542 72.7597 63.0558 70.3504 64.1805C65.5206 66.2337 60.6271 68.1385 55.6698 69.8949C53.2717 70.6305 50.8885 71.3607 48.5202 72.0854C46.7686 72.5179 45.021 72.9624 43.2771 73.4188C36.9323 75.8133 30.3864 77.5277 23.6395 78.5618C22.718 78.6253 21.7965 78.6253 20.875 78.5618C18.7535 78.0805 17.7208 76.7631 17.7768 74.6093C18.0444 73.6764 18.5052 72.8511 19.1591 72.1331C22.2187 69.1891 25.6823 66.8239 29.5499 65.0376C39.5049 60.7181 49.7685 57.353 60.3409 54.9422C63.8492 53.8591 67.3445 52.7162 70.827 51.5135C71.8794 51.2574 72.9281 51.0511 73.9729 50.8944ZM108.958 73.8474C111.819 73.7369 113.201 75.102 113.105 77.9427C113.743 79.1186 113.791 80.325 113.248 81.5619C112.619 82.7467 111.761 83.7468 110.674 84.5619C106.251 87.4541 101.548 89.8034 96.5657 91.6097C90.6763 93.7914 84.7024 95.7594 78.6439 97.5146C71.9565 99.1271 65.3788 101 58.911 103.134C57.7833 103.395 56.6394 103.569 55.4792 103.658C53.7122 103.625 52.4252 102.831 51.6184 101.277C51.3701 100.197 51.4655 99.149 51.9044 98.1337C53.2392 95.8003 55.0664 93.9587 57.3857 92.6098C59.4918 91.4308 61.6208 90.3038 63.7727 89.2287C70.2639 86.2596 76.9052 83.7199 83.6963 81.6095C86.9622 80.6352 90.2034 79.6511 93.4198 78.657C98.3178 76.1869 103.498 74.5837 108.958 73.8474ZM138.701 79.8475C140.15 79.7155 141.453 80.0807 142.609 80.9428C143.772 82.2444 143.868 83.6254 142.895 85.0858C142.095 86.017 141.158 86.7789 140.083 87.3715C137.532 88.5567 134.879 89.4933 132.123 90.1811C130.234 90.4775 128.914 89.7632 128.167 88.0382C127.951 86.5908 128.412 85.4003 129.549 84.4667C131.031 83.3382 132.619 82.3858 134.316 81.6095C135.771 80.972 137.234 80.3847 138.701 79.8475ZM115.441 94.3241C116.549 94.1877 117.598 94.3623 118.586 94.8479C119.988 96.0727 120.258 97.5175 119.397 99.1813C118.777 100.161 117.952 100.923 116.918 101.467C113.768 102.873 110.51 104 107.147 104.848C105.241 105.293 103.334 105.737 101.427 106.182C99.865 106.362 98.7058 105.774 97.9479 104.42C97.5666 102.8 98.0594 101.515 99.4255 100.562C102.769 98.8128 106.137 97.0984 109.53 95.4193C109.848 95.3241 110.166 95.2289 110.484 95.1336C111.182 95.1019 111.882 95.0701 112.581 95.0384C113.54 94.7687 114.493 94.5306 115.441 94.3241ZM27.3573 97.1813C28.5599 97.0527 29.672 97.2908 30.6938 97.8956C32.4433 97.7918 33.6349 98.5375 34.2686 100.134C34.4575 102.044 33.8855 103.696 32.5527 105.086C30.6329 106.954 28.3608 108.176 25.7367 108.753C24.9741 108.817 24.2115 108.817 23.4489 108.753C23.1045 108.644 22.7867 108.485 22.4956 108.277C22.2379 107.987 21.9519 107.734 21.6376 107.515C19.9709 107.454 18.8746 106.644 18.3488 105.086C18.5151 102.391 19.8021 100.407 22.2096 99.1337C22.9958 98.7347 23.7902 98.3537 24.5928 97.9908C25.5272 97.7023 26.4487 97.4327 27.3573 97.1813ZM38.5107 112.801C39.5328 112.765 40.5497 112.813 41.5612 112.944C43.7006 113.684 44.5426 115.16 44.0874 117.372C43.7793 118.126 43.3185 118.776 42.7052 119.325C41.0782 120.724 39.267 121.804 37.2715 122.563C36.1226 122.789 35.074 122.582 34.1256 121.944C33.2262 121.259 32.4795 120.433 31.8854 119.468C31.4069 117.266 32.1218 115.566 34.0303 114.372C35.4559 113.597 36.9494 113.073 38.5107 112.801ZM91.7992 115.277C92.3115 115.279 92.8199 115.326 93.3245 115.42C93.9077 115.666 94.5114 115.857 95.1357 115.991C96.3532 115.986 97.5609 116.081 98.7582 116.277C101.038 117.039 101.912 118.579 101.38 120.896C100.815 122.008 100.037 122.944 99.0442 123.706C97.0514 124.955 94.9541 126.003 92.7525 126.849C89.9566 127.912 87.0968 128.737 84.173 129.325C77.8745 130.287 71.6782 131.652 65.584 133.42C64.2246 133.741 62.9535 133.551 61.7708 132.849C60.5557 131.82 60.1903 130.534 60.6746 128.992C61.204 127.891 61.9507 126.953 62.9148 126.182C65.0583 124.556 67.3779 123.254 69.8737 122.277C74.8729 120.415 79.9888 118.828 85.2216 117.515C86.4709 117.145 87.6784 116.668 88.8441 116.087C89.8355 115.767 90.8205 115.498 91.7992 115.277Z" stroke="#59545F" stroke-width="10" stroke-linejoin="round" shape-rendering="crispEdges" mask="url(#path-1-inside-1_17_2)"/>
</g>
</g>
<defs>
<filter id="filter0_d_17_2" x="-2" y="5" width="159" height="149" filterUnits="userSpaceOnUse" color-interpolation-filters="sRGB">
<feFlood flood-opacity="0" result="BackgroundImageFix"/>
<feColorMatrix in="SourceAlpha" type="matrix" values="0 0 0 0 0 0 0 0 0 0 0 0 0 0 0 0 0 0 127 0" result="hardAlpha"/>
<feOffset dy="4"/>
<feGaussianBlur stdDeviation="2"/>
<feComposite in2="hardAlpha" operator="out"/>
<feColorMatrix type="matrix" values="0 0 0 0 0 0 0 0 0 0 0 0 0 0 0 0 0 0 0.25 0"/>
<feBlend mode="normal" in2="BackgroundImageFix" result="effect1_dropShadow_17_2"/>
<feBlend mode="normal" in="SourceGraphic" in2="effect1_dropShadow_17_2" result="shape"/>
</filter>
<clipPath id="clip0_17_2">
<rect width="155" height="155" fill="white"/>
</clipPath>
</defs>
</svg>

